<svg xmlns="http://www.w3.org/2000/svg" viewBox="0 0 300 24" fill="none" stroke="#3a322a" stroke-linecap="round" stroke-width="1">
  <path d="M2 12h58M240 12h58"/>
  <path d="M60 12c8 0 12-4 18-4 5 0 6 5 2 6-3 1-4-3-1-3M240 12c-8 0-12-4-18-4-5 0-6 5-2 6 3 1 4-3 1-3"/>
  <path d="M86 12c10 0 14-7 22-7 7 0 8 7 3 8-4 1-5-4-2-4M214 12c-10 0-14-7-22-7-7 0-8 7-3 8 4 1 5-4 2-4"/>
  <path d="M60 12c12 2 22 6 34 5 10-1 16-6 24-6M240 12c-12 2-22 6-34 5-10-1-16-6-24-6"/>
  <path d="M150 12c-7-8-18-9-22-3-3 5 3 9 7 5 2-3-1-6-3-4M150 12c7-8 18-9 22-3 3 5-3 9-7 5-2-3 1-6 3-4"/>
  <path d="M150 12c-6 6-16 8-24 5-5-2-7-5-8-6M150 12c6 6 16 8 24 5 5-2 7-5 8-6"/>
  <path d="M118 11c4-4 8-6 12-6M182 11c-4-4-8-6-12-6"/>
  <g fill="#3a322a" stroke="none"><path d="M150 4l3 8-3 8-3-8z"/><circle cx="2" cy="12" r="1.5"/><circle cx="298" cy="12" r="1.5"/><circle cx="72" cy="12" r="1.2"/><circle cx="228" cy="12" r="1.2"/><circle cx="104" cy="15" r="1.1"/><circle cx="196" cy="15" r="1.1"/></g>
</svg>
